<?xml version="1.0" standalone="no"?>
<!DOCTYPE svg PUBLIC "-//W3C//DTD SVG 20010904//EN"
 "http://www.w3.org/TR/2001/REC-SVG-20010904/DTD/svg10.dtd">
<svg version="1.0" xmlns="http://www.w3.org/2000/svg"
 width="1539.000000pt" height="961.000000pt" viewBox="0 0 1539.000000 961.000000"
 preserveAspectRatio="xMidYMid meet">

<g transform="translate(0.000000,961.000000) scale(0.100000,-0.100000)"
fill="#000000" stroke="none">
<path d="M1980 9109 c0 -8 6 -39 14 -69 22 -83 53 -251 72 -390 14 -95 18
-194 19 -408 l0 -284 29 -23 c36 -29 136 -60 241 -76 127 -18 370 -14 510 11
144 25 271 58 283 73 5 7 12 145 15 307 3 162 11 327 17 365 41 253 53 321 74
403 12 51 19 95 15 97 -4 3 -137 0 -295 -6 -268 -10 -631 -7 -886 8 -90 5
-108 3 -108 -8z"/>
<path d="M1810 7939 c0 -6 14 -30 30 -54 133 -193 445 -378 701 -416 210 -30
490 64 704 238 84 69 198 213 181 230 -3 3 -56 -20 -118 -51 -440 -218 -906
-214 -1377 10 -126 60 -121 58 -121 43z"/>
<path d="M5057 7403 c-4 -3 -7 -494 -7 -1090 l0 -1083 -545 0 -545 0 0 768 c0
720 -1 770 -17 784 -10 8 -160 85 -333 170 l-315 155 -96 90 c-102 96 -134
119 -144 104 -3 -6 -10 -104 -15 -218 -15 -329 -35 -539 -96 -1013 -66 -517
-122 -835 -185 -1065 -22 -77 -51 -186 -66 -242 -15 -57 -30 -103 -34 -103 -3
0 -14 30 -24 68 -9 37 -34 126 -55 197 -65 224 -237 1012 -304 1395 -40 231
-96 636 -96 697 0 34 22 27 53 -17 31 -43 60 -56 109 -46 46 9 118 48 130 69
6 11 16 16 25 13 9 -4 31 -2 49 4 26 9 39 8 64 -5 28 -15 41 -16 109 -15 13 1
36 -11 52 -26 30 -28 88 -44 129 -34 15 3 32 19 42 38 9 19 24 42 34 53 16 18
16 21 -1 58 -10 22 -23 66 -29 98 l-12 58 -43 -2 c-25 -1 -76 -17 -121 -38
-42 -21 -95 -39 -116 -40 -150 -14 -158 -13 -187 11 -27 23 -117 56 -191 69
-33 7 -37 5 -47 -21 -6 -16 -16 -57 -23 -92 -6 -35 -16 -64 -21 -65 -6 -1 -12
39 -15 92 -3 52 -9 96 -15 98 -5 1 -64 -42 -130 -97 -130 -109 -212 -153 -586
-320 l-166 -74 -6 -346 c-4 -190 -11 -535 -17 -768 -10 -431 -3 -800 21 -1106
l12 -148 -31 -25 c-40 -30 -40 -37 -2 -53 45 -18 46 -28 9 -67 -33 -33 -33
-35 -15 -49 11 -8 26 -14 34 -14 25 0 9 -44 -18 -50 -38 -9 -36 -35 5 -59 42
-24 41 -44 -1 -51 -40 -7 -43 -35 -5 -55 35 -18 40 -41 12 -50 -11 -3 -25 -12
-31 -20 -18 -21 4 -45 41 -45 15 0 39 -4 53 -10 19 -7 62 -2 168 20 179 36
356 62 369 55 8 -6 13 -35 6 -35 -37 0 -477 -90 -500 -102 -24 -12 -21 -106 3
-99 8 2 67 19 130 38 140 41 288 68 322 60 21 -6 30 -20 49 -73 13 -37 31 -70
39 -74 105 -48 111 -58 115 -205 5 -129 9 -139 60 -129 28 6 40 16 48 39 2 6
56 11 125 13 l122 4 17 -31 18 -31 93 0 c66 0 92 3 93 13 0 6 0 209 -1 451 -1
318 2 437 10 434 6 -2 30 -62 54 -133 24 -72 94 -268 155 -438 124 -343 172
-489 290 -880 45 -148 147 -474 227 -725 159 -497 241 -762 274 -887 29 -112
31 -113 76 -92 20 10 38 16 41 13 2 -2 5 -89 6 -192 2 -215 7 -231 79 -279 66
-45 166 -94 204 -101 28 -5 48 1 107 30 118 61 147 94 147 168 0 62 -10 84
-96 203 -71 99 -134 211 -134 239 0 11 21 16 88 21 107 8 112 9 112 34 0 11
-38 170 -84 353 -101 400 -138 566 -168 758 -23 144 -23 152 -23 1164 l0 1019
530 -1 c292 0 533 -1 537 -1 5 -1 9 -484 10 -1073 l3 -1073 375 0 375 0 0
2530 0 2530 -371 3 c-204 1 -373 -1 -377 -5z m-1657 -1184 c0 -6 -15 -25 -33
-42 -18 -18 -43 -45 -54 -62 l-22 -30 -38 23 c-21 12 -57 32 -80 44 -69 35
-58 55 35 63 42 3 84 8 92 9 37 8 100 5 100 -5z"/>
<path d="M13923 7403 c-10 -4 -13 -188 -13 -874 0 -478 -2 -869 -5 -869 -2 0
-35 19 -72 43 -225 144 -464 226 -719 247 -67 5 -520 10 -1026 10 l-908 0 0
-1810 0 -1811 978 3 c977 3 977 3 1087 27 402 84 740 272 1004 558 120 130
201 249 280 408 110 222 161 403 183 647 13 153 2 331 -29 469 -15 67 -18 212
-23 1514 l-5 1440 -360 2 c-198 1 -366 -1 -372 -4z m-903 -2128 c265 -36 475
-139 655 -319 182 -183 295 -409 330 -661 18 -126 18 -197 0 -310 -55 -350
-252 -643 -550 -821 -253 -151 -582 -201 -856 -131 -200 52 -340 130 -492 276
-239 230 -367 529 -367 862 0 84 30 252 64 352 127 376 456 663 853 741 149
29 216 31 363 11z"/>
<path d="M6482 7350 c-231 -83 -372 -315 -334 -546 24 -146 131 -292 262 -357
143 -71 287 -70 436 3 169 83 264 242 264 440 0 122 -39 229 -114 317 -48 55
-158 127 -225 147 -77 23 -221 21 -289 -4z"/>
<path d="M2602 6708 c-18 -18 -15 -52 6 -71 25 -22 45 -21 67 3 27 30 10 74
-30 78 -17 2 -36 -3 -43 -10z"/>
<path d="M2604 6297 c-31 -27 -27 -58 12 -83 22 -15 26 -15 49 0 33 21 34 68
3 90 -29 21 -32 20 -64 -7z"/>
<path d="M6252 4153 l3 -1808 378 -3 377 -2 0 1810 0 1810 -380 0 -380 0 2
-1807z"/>
<path d="M8433 5950 c-219 -29 -524 -179 -704 -347 -25 -24 -49 -40 -52 -36
-4 3 -7 89 -7 189 0 101 -4 185 -9 188 -14 9 -138 -130 -202 -229 -243 -368
-363 -826 -363 -1390 0 -240 7 -319 50 -532 126 -623 495 -1122 984 -1327 238
-101 389 -128 688 -124 l214 3 -148 135 c-329 300 -437 401 -612 574 -203 201
-277 288 -369 437 -162 264 -235 528 -219 791 23 380 234 702 571 872 117 59
254 95 419 110 l131 11 0 340 0 340 -155 1 c-85 1 -183 -2 -217 -6z"/>
<path d="M9107 5953 c-4 -3 -7 -391 -7 -862 0 -912 4 -998 51 -1219 69 -321
249 -688 466 -954 91 -110 252 -260 355 -329 224 -151 475 -233 758 -247 157
-8 353 -4 348 7 -2 4 -97 93 -213 196 -278 250 -694 667 -777 779 -284 381
-377 861 -241 1239 108 303 319 518 623 635 106 41 207 60 343 64 44 1 82 7
88 14 5 7 8 143 7 345 l-3 334 -110 3 c-351 10 -681 -109 -949 -342 -41 -36
-79 -66 -83 -66 -4 0 -9 87 -9 194 -1 107 -5 199 -9 205 -7 12 -627 16 -638 4z"/>
<path d="M2613 5908 c-33 -16 -39 -46 -15 -77 24 -33 48 -38 73 -15 26 24 25
69 -3 88 -26 18 -26 18 -55 4z"/>
<path d="M2598 5499 c-25 -14 -24 -75 1 -89 27 -14 37 -13 55 6 21 21 20 57
-2 77 -21 19 -30 20 -54 6z"/>
<path d="M2602 5084 c-39 -27 -22 -114 22 -114 45 0 60 90 21 116 -18 12 -24
11 -43 -2z"/>
<path d="M1587 3609 c-60 -14 -129 -54 -175 -102 -42 -43 -44 -47 -45 -111 0
-36 1 -67 4 -68 2 -1 14 1 27 4 19 5 22 13 22 61 0 51 3 57 38 89 49 44 110
59 129 31 31 -41 27 -61 -21 -113 -25 -27 -46 -58 -46 -70 0 -18 7 -20 63 -22
115 -3 340 3 350 9 12 7 2 102 -13 117 -21 21 -10 36 24 36 42 0 48 15 26 60
-26 51 -50 69 -110 80 -63 12 -220 12 -273 -1z m268 -60 c21 -10 30 -21 30
-39 l0 -25 -115 4 c-63 2 -118 5 -122 8 -15 8 -8 52 10 63 23 15 159 7 197
-11z"/>
<path d="M1003 3298 c-5 -35 -6 -78 -2 -98 10 -44 5 -49 -14 -14 -15 28 -16
28 -98 25 -127 -5 -173 -13 -177 -32 -2 -13 11 -19 65 -27 37 -5 80 -15 96
-21 31 -12 46 -39 28 -51 -7 -4 -17 -40 -22 -81 -5 -41 -11 -86 -14 -100 -7
-29 -39 -69 -57 -69 -6 0 1 11 14 25 22 22 26 37 32 120 4 52 5 99 2 104 -8
13 -56 20 -62 9 -3 -5 -12 -7 -19 -4 -9 3 -16 -8 -20 -34 -8 -46 -34 -60 -69
-36 -24 15 -81 17 -103 3 -7 -5 -13 -20 -13 -33 0 -16 -5 -24 -12 -21 -7 2
-13 9 -12 15 1 7 2 37 3 67 l1 55 105 0 c58 0 105 4 105 9 0 16 -31 21 -135
21 -119 0 -115 5 -115 -118 l0 -74 38 4 c34 3 37 1 40 -24 4 -31 0 -33 -27
-16 -22 13 -55 4 -49 -15 7 -20 51 -38 60 -24 4 7 8 8 8 2 0 -6 -5 -16 -11
-22 -7 -7 -12 -50 -13 -103 -1 -85 1 -93 23 -111 17 -14 39 -19 85 -19 79 0
136 -16 268 -74 181 -78 630 -257 657 -261 14 -2 44 -11 66 -19 45 -17 91 -20
99 -8 3 5 0 42 -7 83 -11 65 -15 74 -36 77 -30 5 -59 -23 -67 -64 -7 -39 -17
-43 -30 -14 -6 13 -41 34 -94 56 -130 53 -473 188 -585 229 -159 58 -208 76
-232 86 -13 5 -23 17 -23 28 0 37 -19 32 -22 -6 -2 -26 -8 -38 -18 -38 -22 0
-27 120 -6 128 8 3 20 0 26 -8 6 -8 18 -11 26 -8 9 3 19 -7 30 -32 18 -44 54
-62 294 -148 85 -31 256 -97 380 -147 138 -55 226 -86 229 -79 10 30 43 49 85
49 48 0 71 -15 87 -58 8 -21 13 -23 46 -17 20 3 131 37 247 75 116 37 299 96
406 130 107 34 202 68 210 74 8 7 23 16 33 19 16 6 17 25 15 258 l-3 252 -194
-2 c-168 -2 -197 -5 -207 -19 -9 -13 -30 -16 -94 -17 -73 0 -84 2 -100 22
l-18 23 -439 1 -438 1 3 -44 c3 -42 -18 -91 -33 -76 -13 13 -10 127 3 140 10
10 113 14 450 18 240 3 443 9 450 13 6 5 12 19 12 33 l0 24 -435 0 -435 0 -13
28 c-6 15 -16 30 -22 34 -5 4 -58 8 -116 8 l-105 0 -11 -62z m105 15 c-10 -2
-28 -2 -40 0 -13 2 -5 4 17 4 22 1 32 -1 23 -4z m107 -3 c4 -6 -6 -10 -24 -10
-16 0 -33 5 -36 10 -4 6 6 10 24 10 16 0 33 -4 36 -10z m35 -52 c0 -7 -4 -19
-9 -26 -7 -11 -10 -10 -15 3 -10 26 -7 35 9 35 8 0 15 -6 15 -12z m-174 -14
c-3 -9 -6 -24 -6 -35 0 -10 -7 -19 -15 -19 -10 0 -15 11 -15 35 0 29 4 35 21
35 15 0 19 -4 15 -16z m110 -7 c9 -9 -63 -77 -81 -77 -22 0 -23 12 -4 50 16
31 25 37 49 36 16 -1 32 -5 36 -9z m-106 -81 c0 -11 -19 -15 -25 -6 -3 5 1 10
9 10 9 0 16 -2 16 -4z m-50 -106 c10 -5 47 -10 82 -10 51 -1 59 -3 44 -12 -11
-6 -43 -8 -80 -5 -65 6 -96 29 -96 71 1 19 2 18 16 -6 8 -15 23 -32 34 -38z
m-309 -85 c0 -5 -10 -12 -22 -13 -31 -5 -89 7 -89 19 0 13 110 7 111 -6z m12
-142 c-7 -2 -19 -2 -25 0 -7 3 -2 5 12 5 14 0 19 -2 13 -5z"/>
<path d="M2156 3333 c-9 -23 4 -155 17 -170 6 -8 35 -13 77 -13 78 0 87 9 67
67 -10 33 -17 38 -50 44 -31 5 -73 27 -56 30 2 0 32 2 65 3 l62 3 -5 -38 c-3
-22 -4 -39 -2 -40 2 0 99 -3 214 -6 176 -4 212 -7 223 -21 9 -12 12 -85 12
-288 0 -205 -3 -274 -12 -281 -7 -5 -57 -22 -112 -38 -231 -67 -820 -271 -830
-287 -33 -54 25 -41 524 123 168 55 343 109 390 120 47 11 95 27 108 35 l23
15 -3 324 c-3 323 -3 325 -26 347 -22 22 -28 23 -230 24 l-207 1 -18 32 -19
31 -103 0 c-87 0 -104 -3 -109 -17z"/>
<path d="M645 3304 c-16 -17 -25 -39 -25 -59 0 -18 -3 -47 -6 -64 -6 -28 -4
-31 20 -31 17 0 26 5 26 15 0 9 7 29 15 45 l16 30 144 0 145 0 0 29 c0 16 2
35 5 43 4 10 -27 14 -155 16 l-160 3 -25 -27z"/>
<path d="M576 3073 c-11 -11 -6 -23 8 -23 8 0 17 4 20 9 7 10 -19 23 -28 14z"/>
<path d="M650 3070 c-22 -5 -27 -8 -13 -9 12 0 23 -5 25 -10 5 -13 60 -1 55
13 -5 14 -23 16 -67 6z"/>
<path d="M657 2503 c-9 -87 -9 -796 -1 -817 5 -14 61 -16 525 -16 l519 0 0
-51 c0 -140 -58 -407 -115 -524 -42 -89 -56 -99 -295 -228 -197 -106 -278
-163 -267 -189 13 -35 391 -37 552 -3 112 23 155 44 195 97 42 55 123 113 145
105 8 -4 15 -18 15 -32 l0 -26 93 6 c115 8 113 8 120 42 3 15 10 57 17 93 6
35 15 69 20 75 9 10 24 204 38 485 l7 145 300 5 300 5 3 405 c2 325 0 410 -11
424 -12 17 -19 17 -73 6 -32 -7 -205 -61 -384 -120 -663 -220 -636 -213 -725
-189 -70 19 -616 239 -730 294 -104 51 -173 74 -221 75 -19 0 -22 -7 -27 -67z"/>
</g>
</svg>
